{
	"asset": {
		"generator": "Blocks 4.0.1RC0 SVR",
		"version": "1.1",
		"copyright": "Unknown"
	},
	"buffers": {
		"model": {
			"byteLength": 1582228,
			"type": "arraybuffer",
			"uri": "model.bin"
		}
	},
	"accessors": {
		"accessor_position_m0-PolyPaper2_-74330": {
			"bufferView": "vec3BufferView",
			"byteOffset": 0,
			"byteStride": 12,
			"componentType": 5126,
			"count": 19968,
			"max": [ 2.363719, -2.021895, 0.02080563 ],
			"min": [ 1.626987, -3.634063, -1.621151 ],
			"type": "VEC3"
		 },
		"accessor_normal_m0-PolyPaper2_-74330": {
			"bufferView": "vec3BufferView",
			"byteOffset": 239616,
			"byteStride": 12,
			"componentType": 5126,
			"count": 19968,
			"max": [ 0.9999988, 0.9999989, 0.9950073 ],
			"min": [ -0.9999694, -0.9999898, -0.9988719 ],
			"type": "VEC3"
		 },
		"accessor_color_m0-PolyPaper2_-74330": {
			"bufferView": "vec4BufferView",
			"byteOffset": 0,
			"byteStride": 16,
			"componentType": 5126,
			"count": 19968,
			"max": [ 0.4039216, 0.227451, 0.7176471, 1 ],
			"min": [ 0.4039216, 0.227451, 0.7176471, 1 ],
			"type": "VEC4"
		 },
		"accessor_indices_0_m0-PolyPaper2_-74330": {
			"bufferView": "ushortBufferView",
			"byteOffset": 0,
			"byteStride": 0,
			"componentType": 5123,
			"count": 29952,
			"max": [ 19967 ],
			"min": [ 0 ],
			"type": "SCALAR"
		 },
		"accessor_position_m1-PolyGem25_-74336": {
			"bufferView": "vec3BufferView",
			"byteOffset": 479232,
			"byteStride": 12,
			"componentType": 5126,
			"count": 60,
			"max": [ 2.218389, -2.712027, -1.451645 ],
			"min": [ 2.127132, -3.433535, -1.621151 ],
			"type": "VEC3"
		 },
		"accessor_normal_m1-PolyGem25_-74336": {
			"bufferView": "vec3BufferView",
			"byteOffset": 479952,
			"byteStride": 12,
			"componentType": 5126,
			"count": 60,
			"max": [ 0.9839011, 0.2515601, 0.1785655 ],
			"min": [ -0.9841431, -0.007429904, -0.395929 ],
			"type": "VEC3"
		 },
		"accessor_color_m1-PolyGem25_-74336": {
			"bufferView": "vec4BufferView",
			"byteOffset": 319488,
			"byteStride": 16,
			"componentType": 5126,
			"count": 60,
			"max": [ 1, 1, 1, 1 ],
			"min": [ 1, 1, 1, 1 ],
			"type": "VEC4"
		 },
		"accessor_indices_0_m1-PolyGem25_-74336": {
			"bufferView": "ushortBufferView",
			"byteOffset": 59904,
			"byteStride": 0,
			"componentType": 5123,
			"count": 90,
			"max": [ 59 ],
			"min": [ 0 ],
			"type": "SCALAR"
		 },
		"accessor_position_m2-PolyPaper2_-74342": {
			"bufferView": "vec3BufferView",
			"byteOffset": 480672,
			"byteStride": 12,
			"componentType": 5126,
			"count": 16768,
			"max": [ 2.381616, -2.036869, 0.03201859 ],
			"min": [ 1.687412, -3.544787, -1.526078 ],
			"type": "VEC3"
		 },
		"accessor_normal_m2-PolyPaper2_-74342": {
			"bufferView": "vec3BufferView",
			"byteOffset": 681888,
			"byteStride": 12,
			"componentType": 5126,
			"count": 16768,
			"max": [ 0.9999983, 0.9976707, 0.9994175 ],
			"min": [ -0.999998, -0.99781, -0.9999207 ],
			"type": "VEC3"
		 },
		"accessor_color_m2-PolyPaper2_-74342": {
			"bufferView": "vec4BufferView",
			"byteOffset": 320448,
			"byteStride": 16,
			"componentType": 5126,
			"count": 16768,
			"max": [ 0.9568627, 0.2627451, 0.7176471, 1 ],
			"min": [ 0.4039216, 0.227451, 0.2117647, 1 ],
			"type": "VEC4"
		 },
		"accessor_indices_0_m2-PolyPaper2_-74342": {
			"bufferView": "ushortBufferView",
			"byteOffset": 60084,
			"byteStride": 0,
			"componentType": 5123,
			"count": 25152,
			"max": [ 16767 ],
			"min": [ 0 ],
			"type": "SCALAR"
		 }
	},
	"bufferViews": {
		"ushortBufferView": {
			"buffer": "model",
			"byteLength": 110388,
			"byteOffset": 0,
			"target": 34963
		},
		"vec3BufferView": {
			"buffer": "model",
			"byteLength": 883104,
			"byteOffset": 110388,
			"target": 34962
		},
		"vec4BufferView": {
			"buffer": "model",
			"byteLength": 588736,
			"byteOffset": 993492,
			"target": 34962
		}
	},
	"meshes": {
		"mesh_m0-PolyPaper2_-74330": {
			"name": "mesh_m0-PolyPaper2_-74330",
			"primitives": [
				{
					"attributes": {
						"POSITION": "accessor_position_m0-PolyPaper2_-74330",
						"NORMAL": "accessor_normal_m0-PolyPaper2_-74330",
						"COLOR": "accessor_color_m0-PolyPaper2_-74330"
					},
					"indices": "accessor_indices_0_m0-PolyPaper2_-74330",
					"material": "material_mat2",
					"mode": 4
				}
			]
		},
		"mesh_m1-PolyGem25_-74336": {
			"name": "mesh_m1-PolyGem25_-74336",
			"primitives": [
				{
					"attributes": {
						"POSITION": "accessor_position_m1-PolyGem25_-74336",
						"NORMAL": "accessor_normal_m1-PolyGem25_-74336",
						"COLOR": "accessor_color_m1-PolyGem25_-74336"
					},
					"indices": "accessor_indices_0_m1-PolyGem25_-74336",
					"material": "material_mat25",
					"mode": 4
				}
			]
		},
		"mesh_m2-PolyPaper2_-74342": {
			"name": "mesh_m2-PolyPaper2_-74342",
			"primitives": [
				{
					"attributes": {
						"POSITION": "accessor_position_m2-PolyPaper2_-74342",
						"NORMAL": "accessor_normal_m2-PolyPaper2_-74342",
						"COLOR": "accessor_color_m2-PolyPaper2_-74342"
					},
					"indices": "accessor_indices_0_m2-PolyPaper2_-74342",
					"material": "material_mat2",
					"mode": 4
				}
			]
		}
	},
	"shaders": {
		"vertex_mat2": {
			"type": 35633,
			"uri": "https://vr.google.com/shaders/w/vs.glsl"
		},
		"fragment_mat2": {
			"type": 35632,
			"uri": "https://vr.google.com/shaders/w/fs.glsl"
		},
		"vertex_mat25": {
			"type": 35633,
			"uri": "https://vr.google.com/shaders/w/gemVS.glsl"
		},
		"fragment_mat25": {
			"type": 35632,
			"uri": "https://vr.google.com/shaders/w/gemFS.glsl"
		}
	},
	"programs": {
		"program_mat2": {
			"attributes": [
				"a_position",
				"a_normal",
				"a_color"				
			],
			"vertexShader": "vertex_mat2",
			"fragmentShader": "fragment_mat2"
		},
		"program_mat25": {
			"attributes": [
				"a_position",
				"a_normal",
				"a_color"				
			],
			"vertexShader": "vertex_mat25",
			"fragmentShader": "fragment_mat25"
		}
	},
	"techniques": {
		"technique_mat2": {
			"program": "program_mat2",
			"extras": {"gvrss" : "https://vr.google.com/shaders/w/gvrss/paper.json"},
			"parameters": {
				"position": {
					"type": 35665,
					"semantic": "POSITION"
				},
				"normal": {
					"type": 35665,
					"semantic": "NORMAL"
				},
				"color": {
					"type": 35666,
					"semantic": "COLOR"
				},
				"modelViewMatrix": {
					"type": 35676,
					"semantic": "MODELVIEW"
				},
				"projectionMatrix": {
					"type": 35676,
					"semantic": "PROJECTION"
				},
				"normalMatrix": {
					"type": 35675,
					"semantic": "MODELVIEWINVERSETRANSPOSE"
				},
				"color": {
					"type": 35666
				},
				"roughness": {
					"type": 5126
				},
				"metallic": {
					"type": 5126
				},
				"light0Pos": {
					"type": 35666
				},
				"light0Color": {
					"type": 35666
				},
				"light1Pos": {
					"type": 35666
				},
				"light1Color": {
					"type": 35666
				}				
			},
			"attributes": {
				"a_position": "position",
				"a_normal": "normal",
				"a_color": "color"				
			},
			"uniforms": {
				"u_modelViewMatrix": "modelViewMatrix",
				"u_projectionMatrix": "projectionMatrix",
				"u_normalMatrix": "normalMatrix",
				"u_color": "color",
				"u_roughness": "roughness",
				"u_metallic": "metallic",
				"u_light0Pos": "light0Pos",
				"u_light0Color": "light0Color",
				"u_light1Pos": "light1Pos",
				"u_light1Color": "light1Color"				
			},
			"states": {
				"enable": [
					2929,
					2884
				],
				"functions": {
					"cullFace": [1029]
				}
			}
		},
		"technique_mat25": {
			"program": "program_mat25",
			"extras": {"gvrss" : "https://vr.google.com/shaders/w/gvrss/gem.json"},
			"parameters": {
				"position": {
					"type": 35665,
					"semantic": "POSITION"
				},
				"normal": {
					"type": 35665,
					"semantic": "NORMAL"
				},
				"color": {
					"type": 35666,
					"semantic": "COLOR"
				},
				"modelViewMatrix": {
					"type": 35676,
					"semantic": "MODELVIEW"
				},
				"projectionMatrix": {
					"type": 35676,
					"semantic": "PROJECTION"
				},
				"normalMatrix": {
					"type": 35675,
					"semantic": "MODELVIEWINVERSETRANSPOSE"
				},
				"color": {
					"type": 35666
				},
				"roughness": {
					"type": 5126
				},
				"metallic": {
					"type": 5126
				},
				"gem": {
					"type": 35678
				},
				"light0Pos": {
					"type": 35666
				},
				"light0Color": {
					"type": 35666
				},
				"light1Pos": {
					"type": 35666
				},
				"light1Color": {
					"type": 35666
				}				
			},
			"attributes": {
				"a_position": "position",
				"a_normal": "normal",
				"a_color": "color"				
			},
			"uniforms": {
				"u_modelViewMatrix": "modelViewMatrix",
				"u_projectionMatrix": "projectionMatrix",
				"u_normalMatrix": "normalMatrix",
				"u_color": "color",
				"u_roughness": "roughness",
				"u_metallic": "metallic",
				"u_gem": "gem",
				"u_light0Pos": "light0Pos",
				"u_light0Color": "light0Color",
				"u_light1Pos": "light1Pos",
				"u_light1Color": "light1Color"				
			},
			"states": {
				"enable": [
					2929,
					2884
				],
				"functions": {
					"cullFace": [1029]
				}
			}
		}
	},
	"samplers": {
		"sampler_LINEAR_LINEAR_REPEAT": {
			"magFilter": 9729,
			"minFilter": 9987,
			"wrapS": 10497,
			"wrapT": 10497
		}
	},
	"textures": {
		"texture_mat25_gem": {
			"format": 6408,
			"internalFormat": 6408,
			"sampler": "sampler_LINEAR_LINEAR_REPEAT",
			"source": "image_mat25_gem",
			"target": 3553,
			"type": 5121
		}
	},
	"images": {
		"image_mat25_gem": {
			"uri": "https://vr.google.com/shaders/w/GemRefractions.png"
		}
	},
	"materials": {
		"material_mat2": {
			"technique": "technique_mat2",
			"values": {
				"color": [0.4039216, 0.227451, 0.7176471, 1],
				"roughness": 1,
				"metallic": 0,
				"light0Pos": [-0.02, 4.11, -0.54, 0],
				"light0Color": [1.28, 1.232075, 1.101177, 0],
				"light1Pos": [0.02, -4.11, 0.54, 0],
				"light1Color": [0.2941177, 0.2953672, 0.32, 0]				
			},
			"name": "material_mat2"
		},
		"material_mat25": {
			"technique": "technique_mat25",
			"values": {
				"color": [1, 1, 1, 1],
				"roughness": 0.001,
				"metallic": 0,
				"gem": "texture_mat25_gem",
				"light0Pos": [-0.02, 4.11, -0.54, 0],
				"light0Color": [1.28, 1.232075, 1.101177, 0],
				"light1Pos": [0.02, -4.11, 0.54, 0],
				"light1Color": [0.2941177, 0.2953672, 0.32, 0]				
			},
			"name": "material_mat25"
		}
	},
	"nodes": {
		"node_MeshObject1983167488-PolyPaper2": {
			"name": "node_MeshObject1983167488-PolyPaper2",
			"meshes": [
				"mesh_m0-PolyPaper2_-74330"
			],
			"matrix": [1, 0, 0, 0, 0, 1, 0, 0, 0, 0, 1, 0, 0, 0, 0, 1]
		},
		"node_MeshObject-1739720704-PolyGem25": {
			"name": "node_MeshObject-1739720704-PolyGem25",
			"meshes": [
				"mesh_m1-PolyGem25_-74336"
			],
			"matrix": [1, 0, 0, 0, 0, 1, 0, 0, 0, 0, 1, 0, 0, 0, 0, 1]
		},
		"node_MeshObject-595562496-PolyPaper2": {
			"name": "node_MeshObject-595562496-PolyPaper2",
			"meshes": [
				"mesh_m2-PolyPaper2_-74342"
			],
			"matrix": [1, 0, 0, 0, 0, 1, 0, 0, 0, 0, 1, 0, 0, 0, 0, 1]
		}
	},
	"scene": "defaultScene",
	"scenes": {
		"defaultScene": {
			"nodes": [
				"node_MeshObject1983167488-PolyPaper2",
				"node_MeshObject-1739720704-PolyGem25",
				"node_MeshObject-595562496-PolyPaper2"
			],
			"extras": {

			}
		}
	}
}