<<<<<<< HEAD
version https://git-lfs.github.com/spec/v1
oid sha256:b1736c8da80aef21b391a733e40ee806c119d593c9a5ad817dcd2a0aabd24611
size 1192
=======
# Blender v2.79 (sub 0) OBJ File: 'streets.blend'
# www.blender.org
mtllib Curve.mtl
o Circle_Circle.002
v 0.004854 0.000000 0.002429
v 0.199924 0.000000 -0.016989
v 0.387458 0.000000 -0.074090
v 0.560248 0.000000 -0.166680
v 0.711656 0.000000 -0.291200
v 0.835861 0.000000 -0.442866
v 0.928091 0.000000 -0.615849
v 0.984801 0.000000 -0.803502
v 1.003812 0.000000 -0.998612
v 0.004333 0.000000 -0.497571
v 0.101869 0.000000 -0.507280
v 0.195635 0.000000 -0.535830
v 0.282031 0.000000 -0.582125
v 0.357734 0.000000 -0.644385
v 0.419837 0.000000 -0.720218
v 0.465952 0.000000 -0.806710
v 0.494307 0.000000 -0.900536
v 0.503813 0.000000 -0.998091
vt 0.000068 0.207147
vt 0.107205 0.119221
vt 0.229438 0.053886
vt 0.362069 0.013653
vt 0.500000 0.000068
vt 0.637931 0.013653
vt 0.770562 0.053886
vt 0.892794 0.119221
vt 0.999932 0.207147
vt 0.749966 0.457113
vt 0.696397 0.413150
vt 0.635280 0.380482
vt 0.568965 0.360366
vt 0.500000 0.353573
vt 0.431035 0.360366
vt 0.364720 0.380482
vt 0.303604 0.413150
vt 0.250035 0.457113
vn 0.0000 1.0000 0.0000
usemtl None
s off
f 1/1/1 2/2/1 3/3/1 4/4/1 5/5/1 6/6/1 7/7/1 8/8/1 9/9/1 18/10/1 17/11/1 16/12/1 15/13/1 14/14/1 13/15/1 12/16/1 11/17/1 10/18/1
>>>>>>> a8eec5261f27f2ff06e8d7da33de5e3969969188
